<mxfile host="app.diagrams.net" modified="2023-09-02T06:09:51.107Z" agent="Mozilla/5.0 (Macintosh; Intel Mac OS X 10_15_7) AppleWebKit/537.36 (KHTML, like Gecko) Chrome/116.0.0.0 Safari/537.36" version="21.1.5" etag="r5swQGdo3Q8Cf_ApCOWq" type="github">
  <diagram name="페이지-1" id="NzmU1jnz0RHj8pje4FjO">
    <mxGraphModel>
      <root>
        <mxCell id="0" />
        <mxCell id="1" parent="0" />
      </root>
    </mxGraphModel>
  </diagram>
</mxfile>
